<svg xmlns="http://www.w3.org/2000/svg" version="1.1" xmlns:xlink="http://www.w3.org/1999/xlink" xmlns:svgjs="http://svgjs.dev/svgjs" width="1920" height="1080" preserveAspectRatio="none" viewBox="0 0 1920 1080"><g mask="url(&quot;#SvgjsMask1090&quot;)" fill="none"><rect width="1920" height="1080" x="0" y="0" fill="rgba(42, 67, 129, 1)"></rect><path d="M0,667.838C125.525,677.967,244.319,612.957,347.814,541.209C448.795,471.204,553.963,385.139,580.76,265.224C606.616,149.52,525.234,41.639,484.315,-69.634C452.083,-157.284,420.855,-241.627,366.456,-317.536C307.257,-400.143,252.268,-498.471,155.267,-528.79C57.949,-559.208,-41.278,-502.409,-139.689,-475.738C-240.405,-448.442,-344.125,-433.006,-427.866,-370.748C-525.333,-298.285,-621.232,-211.079,-653.254,-93.924C-686.735,28.57,-668.718,166.49,-604.68,276.148C-542.917,381.911,-416.311,421.256,-313.517,487.842C-210.287,554.71,-122.596,657.945,0,667.838" fill="#223669"></path><path d="M1920 1622.656C2017.352 1599.0140000000001 2077.687 1508.7 2153.198 1442.863 2216.951 1387.278 2286.758 1340.126 2328.45 1266.533 2372.797 1188.255 2393.788 1101.203 2397.678 1011.3199999999999 2402.232 906.093 2420.323 785.812 2352.752 705.018 2285.131 624.165 2163.7309999999998 618.767 2059.052 606.431 1967.637 595.658 1878.001 610.369 1790.439 638.754 1704.938 666.471 1619.03 700.278 1560.127 768.168 1501.205 836.08 1473.08 925.006 1464.431 1014.499 1456.0439999999999 1101.29 1491.478 1181.586 1511.984 1266.335 1537.837 1373.182 1517.752 1504.761 1600.5520000000001 1577.071 1683.243 1649.2849999999999 1813.316 1648.5639999999999 1920 1622.656" fill="#32509a"></path></g><defs><mask id="SvgjsMask1090"><rect width="1920" height="1080" fill="#ffffff"></rect></mask></defs></svg>