<svg xmlns="http://www.w3.org/2000/svg" version="1.1" xmlns:xlink="http://www.w3.org/1999/xlink" xmlns:svgjs="http://svgjs.dev/svgjs" width="1920" height="1080" preserveAspectRatio="none" viewBox="0 0 1920 1080"><g mask="url(&quot;#SvgjsMask1065&quot;)" fill="none"><rect width="1920" height="1080" x="0" y="0" fill="rgba(37, 57, 78, 1)"></rect><path d="M1327 48L1326 657" stroke-width="10" stroke="url(&quot;#SvgjsLinearGradient1066&quot;)" stroke-linecap="round" class="Down"></path><path d="M1347 615L1346 1008" stroke-width="6" stroke="url(&quot;#SvgjsLinearGradient1066&quot;)" stroke-linecap="round" class="Down"></path><path d="M949 400L948 916" stroke-width="6" stroke="url(&quot;#SvgjsLinearGradient1067&quot;)" stroke-linecap="round" class="Up"></path><path d="M693 311L692 844" stroke-width="6" stroke="url(&quot;#SvgjsLinearGradient1066&quot;)" stroke-linecap="round" class="Down"></path><path d="M1361 541L1360 888" stroke-width="8" stroke="url(&quot;#SvgjsLinearGradient1067&quot;)" stroke-linecap="round" class="Up"></path><path d="M1560 401L1559 1020" stroke-width="10" stroke="url(&quot;#SvgjsLinearGradient1067&quot;)" stroke-linecap="round" class="Up"></path><path d="M195 458L194 -271" stroke-width="10" stroke="url(&quot;#SvgjsLinearGradient1067&quot;)" stroke-linecap="round" class="Up"></path><path d="M172 258L171 986" stroke-width="8" stroke="url(&quot;#SvgjsLinearGradient1066&quot;)" stroke-linecap="round" class="Down"></path><path d="M1633 47L1632 -284" stroke-width="8" stroke="url(&quot;#SvgjsLinearGradient1066&quot;)" stroke-linecap="round" class="Down"></path><path d="M911 110L910 -643" stroke-width="10" stroke="url(&quot;#SvgjsLinearGradient1067&quot;)" stroke-linecap="round" class="Up"></path><path d="M1036 338L1035 -340" stroke-width="6" stroke="url(&quot;#SvgjsLinearGradient1066&quot;)" stroke-linecap="round" class="Down"></path><path d="M53 666L52 1345" stroke-width="8" stroke="url(&quot;#SvgjsLinearGradient1067&quot;)" stroke-linecap="round" class="Up"></path><path d="M211 199L210 544" stroke-width="6" stroke="url(&quot;#SvgjsLinearGradient1066&quot;)" stroke-linecap="round" class="Down"></path><path d="M578 172L577 -243" stroke-width="10" stroke="url(&quot;#SvgjsLinearGradient1066&quot;)" stroke-linecap="round" class="Down"></path><path d="M64 212L63 583" stroke-width="10" stroke="url(&quot;#SvgjsLinearGradient1066&quot;)" stroke-linecap="round" class="Down"></path><path d="M1084 306L1083 768" stroke-width="6" stroke="url(&quot;#SvgjsLinearGradient1067&quot;)" stroke-linecap="round" class="Up"></path><path d="M1040 269L1039 -144" stroke-width="6" stroke="url(&quot;#SvgjsLinearGradient1066&quot;)" stroke-linecap="round" class="Down"></path><path d="M597 737L596 248" stroke-width="10" stroke="url(&quot;#SvgjsLinearGradient1067&quot;)" stroke-linecap="round" class="Up"></path><path d="M1406 317L1405 -308" stroke-width="6" stroke="url(&quot;#SvgjsLinearGradient1067&quot;)" stroke-linecap="round" class="Up"></path><path d="M1165 981L1164 1496" stroke-width="10" stroke="url(&quot;#SvgjsLinearGradient1066&quot;)" stroke-linecap="round" class="Down"></path><path d="M1103 242L1102 -161" stroke-width="8" stroke="url(&quot;#SvgjsLinearGradient1066&quot;)" stroke-linecap="round" class="Down"></path><path d="M1819 703L1818 317" stroke-width="10" stroke="url(&quot;#SvgjsLinearGradient1066&quot;)" stroke-linecap="round" class="Down"></path><path d="M61 26L60 -652" stroke-width="6" stroke="url(&quot;#SvgjsLinearGradient1067&quot;)" stroke-linecap="round" class="Up"></path><path d="M550 756L549 32" stroke-width="10" stroke="url(&quot;#SvgjsLinearGradient1067&quot;)" stroke-linecap="round" class="Up"></path><path d="M911 587L910 -37" stroke-width="6" stroke="url(&quot;#SvgjsLinearGradient1066&quot;)" stroke-linecap="round" class="Down"></path><path d="M307 235L306 527" stroke-width="8" stroke="url(&quot;#SvgjsLinearGradient1066&quot;)" stroke-linecap="round" class="Down"></path><path d="M1059 192L1058 -476" stroke-width="8" stroke="url(&quot;#SvgjsLinearGradient1067&quot;)" stroke-linecap="round" class="Up"></path><path d="M258 880L257 1487" stroke-width="6" stroke="url(&quot;#SvgjsLinearGradient1066&quot;)" stroke-linecap="round" class="Down"></path><path d="M1263 297L1262 -143" stroke-width="10" stroke="url(&quot;#SvgjsLinearGradient1067&quot;)" stroke-linecap="round" class="Up"></path><path d="M1415 97L1414 -494" stroke-width="8" stroke="url(&quot;#SvgjsLinearGradient1066&quot;)" stroke-linecap="round" class="Down"></path><path d="M494 287L493 -341" stroke-width="10" stroke="url(&quot;#SvgjsLinearGradient1066&quot;)" stroke-linecap="round" class="Down"></path><path d="M806 326L805 710" stroke-width="10" stroke="url(&quot;#SvgjsLinearGradient1067&quot;)" stroke-linecap="round" class="Up"></path><path d="M1347 613L1346 211" stroke-width="10" stroke="url(&quot;#SvgjsLinearGradient1067&quot;)" stroke-linecap="round" class="Up"></path><path d="M572 1050L571 769" stroke-width="8" stroke="url(&quot;#SvgjsLinearGradient1066&quot;)" stroke-linecap="round" class="Down"></path><path d="M285 326L284 -337" stroke-width="10" stroke="url(&quot;#SvgjsLinearGradient1066&quot;)" stroke-linecap="round" class="Down"></path><path d="M420 585L419 54" stroke-width="6" stroke="url(&quot;#SvgjsLinearGradient1067&quot;)" stroke-linecap="round" class="Up"></path><path d="M1471 549L1470 -57" stroke-width="8" stroke="url(&quot;#SvgjsLinearGradient1066&quot;)" stroke-linecap="round" class="Down"></path><path d="M62 737L61 314" stroke-width="10" stroke="url(&quot;#SvgjsLinearGradient1067&quot;)" stroke-linecap="round" class="Up"></path><path d="M321 726L320 1429" stroke-width="10" stroke="url(&quot;#SvgjsLinearGradient1067&quot;)" stroke-linecap="round" class="Up"></path><path d="M874 268L873 899" stroke-width="10" stroke="url(&quot;#SvgjsLinearGradient1066&quot;)" stroke-linecap="round" class="Down"></path><path d="M522 1013L521 1333" stroke-width="6" stroke="url(&quot;#SvgjsLinearGradient1066&quot;)" stroke-linecap="round" class="Down"></path><path d="M1103 399L1102 56" stroke-width="8" stroke="url(&quot;#SvgjsLinearGradient1066&quot;)" stroke-linecap="round" class="Down"></path><path d="M1070 101L1069 -321" stroke-width="10" stroke="url(&quot;#SvgjsLinearGradient1066&quot;)" stroke-linecap="round" class="Down"></path><path d="M979 893L978 1328" stroke-width="6" stroke="url(&quot;#SvgjsLinearGradient1067&quot;)" stroke-linecap="round" class="Up"></path><path d="M934 575L933 -120" stroke-width="10" stroke="url(&quot;#SvgjsLinearGradient1067&quot;)" stroke-linecap="round" class="Up"></path><path d="M1624 628L1623 -116" stroke-width="8" stroke="url(&quot;#SvgjsLinearGradient1067&quot;)" stroke-linecap="round" class="Up"></path><path d="M1823 397L1822 -204" stroke-width="8" stroke="url(&quot;#SvgjsLinearGradient1066&quot;)" stroke-linecap="round" class="Down"></path><path d="M285 286L284 1014" stroke-width="10" stroke="url(&quot;#SvgjsLinearGradient1066&quot;)" stroke-linecap="round" class="Down"></path></g><defs><mask id="SvgjsMask1065"><rect width="1920" height="1080" fill="#ffffff"></rect></mask><linearGradient x1="0%" y1="0%" x2="0%" y2="100%" id="SvgjsLinearGradient1066"><stop stop-color="rgba(87, 89, 107, 0)" offset="0"></stop><stop stop-color="rgba(87, 89, 107, 1)" offset="1"></stop></linearGradient><linearGradient x1="0%" y1="100%" x2="0%" y2="0%" id="SvgjsLinearGradient1067"><stop stop-color="rgba(87, 89, 107, 0)" offset="0"></stop><stop stop-color="rgba(87, 89, 107, 1)" offset="1"></stop></linearGradient></defs></svg>