<svg xmlns="http://www.w3.org/2000/svg" version="1.1" xmlns:xlink="http://www.w3.org/1999/xlink" xmlns:svgjs="http://svgjs.dev/svgjs" width="1920" height="1080" preserveAspectRatio="none" viewBox="0 0 1920 1080"><g mask="url(&quot;#SvgjsMask1634&quot;)" fill="none"><rect width="1920" height="1080" x="0" y="0" fill="url(&quot;#SvgjsLinearGradient1635&quot;)"></rect><path d="M1920 0L1757.8600000000001 0L1920 481.12z" fill="rgba(255, 255, 255, .1)"></path><path d="M1757.8600000000001 0L1920 481.12L1920 687.5L1053.9900000000002 0z" fill="rgba(255, 255, 255, .075)"></path><path d="M1053.99 0L1920 687.5L1920 845.85L451.93000000000006 0z" fill="rgba(255, 255, 255, .05)"></path><path d="M451.93000000000006 0L1920 845.85L1920 973.77L345.50000000000006 0z" fill="rgba(255, 255, 255, .025)"></path><path d="M0 1080L140.45 1080L0 923.56z" fill="rgba(0, 0, 0, .1)"></path><path d="M0 923.56L140.45 1080L1076.03 1080L0 730.17z" fill="rgba(0, 0, 0, .075)"></path><path d="M0 730.1700000000001L1076.03 1080L1430.59 1080L0 633.97z" fill="rgba(0, 0, 0, .05)"></path><path d="M0 633.97L1430.59 1080L1582.1799999999998 1080L0 252.48000000000002z" fill="rgba(0, 0, 0, .025)"></path></g><defs><mask id="SvgjsMask1634"><rect width="1920" height="1080" fill="#ffffff"></rect></mask><linearGradient x1="100%" y1="50%" x2="0%" y2="50%" gradientUnits="userSpaceOnUse" id="SvgjsLinearGradient1635"><stop stop-color="rgba(22, 26, 38, 0.993)" offset="0"></stop><stop stop-color="rgba(43, 50, 72, 0.993)" offset="1"></stop></linearGradient></defs></svg>